<?xml version="1.0" encoding="utf-8"?>
<!-- Generator: Adobe Illustrator 15.0.0, SVG Export Plug-In . SVG Version: 6.00 Build 0)  -->
<!DOCTYPE svg PUBLIC "-//W3C//DTD SVG 1.1//EN" "http://www.w3.org/Graphics/SVG/1.1/DTD/svg11.dtd">
<svg version="1.1" id="Layer_1" xmlns="http://www.w3.org/2000/svg" xmlns:xlink="http://www.w3.org/1999/xlink" x="0px" y="0px"
	 width="36px" height="36px" viewBox="0 0 36 36" enable-background="new 0 0 36 36" xml:space="preserve">
<path fill="#FFFFFF" d="M13.982,3.914c0,0,0.952-1,2.19-0.31c0,0,0.881,0.524,0.667,1.786l-0.631,1.178l-5.713,9.845
	c0,0-0.596,0.786-1.738,0.31c0,0-1.333-0.369-0.929-2.059L13.982,3.914z"/>
<path fill="#FFFFFF" d="M21.643,3.914c0,0-0.953-1-2.191-0.31c0,0-0.881,0.524-0.667,1.786l0.631,1.178l5.713,9.845
	c0,0,0.596,0.786,1.738,0.31c0,0,1.334-0.369,0.93-2.059L21.643,3.914z"/>
<path fill="#FFFFFF" d="M1.004,16.438c0,0-0.143-1.429,1.303-1.857h4.018c0,0-0.446,2.607,1.769,3.481c0,0,1.767,0.964,3.375-0.5
	c0,0,0.785-0.768,1.892-2.981h8.912l1.338,2.297c0,0,0.768,1.343,2.537,1.497c0,0,3.607,0.01,3.16-3.793h4.035
	c0,0,1.5,0.329,1.285,1.897"/>
<path fill="#FFFFFF" d="M34.627,16.477c0,0-0.213,1.514-2.16,1.371l-3.268,12.196c0,0-0.18,1.75-2.268,2H8.665
	c0,0-1.322,0.053-2.197-1.716L3.165,17.865c0,0-1.714,0.267-2.161-1.428"/>
<path fill="#010101" d="M9.078,21.557c0,0,0.21-0.845,1.103-0.853c0,0,0.646,0.013,0.922,0.771l0.022,0.841l-0.059,7.173
	c0,0-0.081,0.615-0.855,0.712c0,0-0.845,0.214-1.15-0.839L9.078,21.557z"/>
<path fill="#010101" d="M14.148,21.557c0,0,0.21-0.845,1.104-0.853c0,0,0.646,0.013,0.921,0.771l0.022,0.841l-0.059,7.173
	c0,0-0.081,0.615-0.855,0.712c0,0-0.845,0.214-1.151-0.839L14.148,21.557z"/>
<path fill="#010101" d="M19.436,21.557c0,0,0.209-0.845,1.102-0.853c0,0,0.646,0.013,0.922,0.771l0.023,0.841l-0.061,7.173
	c0,0-0.08,0.615-0.855,0.712c0,0-0.844,0.214-1.15-0.839L19.436,21.557z"/>
<path fill="#010101" d="M24.506,21.557c0,0,0.211-0.845,1.104-0.853c0,0,0.645,0.013,0.92,0.771l0.023,0.841l-0.059,7.173
	c0,0-0.082,0.615-0.855,0.712c0,0-0.846,0.214-1.152-0.839L24.506,21.557z"/>
</svg>
